<svg xmlns="http://www.w3.org/2000/svg" xmlns:xlink="http://www.w3.org/1999/xlink" version="1.1" x="0px" y="0px" viewBox="0 0 100 125" enable-background="new 0 0 100 100" xml:space="preserve"><path fill="#000000" d="M3.477,82.188v1.289c0,0,0.541,0.746,0.644,0.771c0.103,0.025,0.334,0.283,0.36,0.543  c0.261-0.545,0.638-0.842,0.761-0.842c0.122,0,0.989-0.01,0.989-0.01l0.041-0.326l0.315,0.012c0,0,0.031-0.41,0.093-0.41  c0.061,0,0.499,0,0.499,0v0.314H7.76v0.838l0.551-0.02V84l0.5-0.031l0.04,0.398c0,0,0.307-0.377,0.408-0.377  c0.102,0,0.724,0,0.724,0v0.324l0.428-0.008v0.396h0.276l0.5-0.959c0,0-0.032,0.035,0.561-0.008  c0.592-0.045,5.541-7.689,5.747-8.086c0.206-0.395,0-0.635,0-0.635s-1.065-0.053-1.047-0.242c0.017-0.189,1.701,0,1.701,0  l0.412-0.566h6.373c0,0,1.1-0.67,1.29-0.67c0.188,0,3.848,0,3.848,0v0.773c0,0-0.189,0.377,0,0.377s0.824-0.018,0.824-0.018  l0.138,0.104l1.958-0.016v-9.674l1.46-1.238l0.284,0.033c0,0,0.005,0.416-0.032,0.461c-0.039,0.049-0.291,0.338-0.291,0.338  l-0.006,0.334l0.097,0.205l6.893-6.416l0.349,3.916h-2.088l-0.065,1.676c0,0,0.22,0.322,0.323,0.297  c0.104-0.025,0.786-0.359,0.837-0.311c0.31,0.143-0.077,0.529-0.077,0.605c0,0.078,0.18,0.066,0.309,0.027  c0.129-0.039,0.219-0.039,0.219-0.039l-0.013-0.928c0,0,0.065-0.336,0.245-0.27c0.18,0.064,0.824,0.281,0.902,0.32s0,0.67,0,0.67  h-0.09l-0.013,2.18h0.709v1.623h1.069v4.23h-1.469v1.855l12.405-0.207l0.996-0.068c0,0,1.529-0.514,1.667-0.652  c0,0-0.172-0.07-0.189-0.242c-0.018-0.17,0.516-0.17,0.516-0.17v-3.594l2.336-0.016c0,0,0.412-0.516,0.516-0.393  c0.104,0.119,0.155,0.256,0.155,0.256l0.721-0.738v-0.861c0,0-0.257-0.256-0.412-0.256s-0.619,0.051-0.705-0.016  c-0.085-0.07-0.274-0.396-0.257-0.723c0.016-0.328-0.516-0.086-0.601,0.07c-0.086,0.152-0.208,0.516-0.345,0.531  c-0.138,0.018-1.527-1.014-1.527-1.152c0-0.137,0-0.496,0.067-0.531s0.137-0.414-0.292-0.516c-0.429-0.104-0.688,0.256-0.807,0.24  c-0.122-0.018-0.843-0.447-0.775-1.428c0.062-0.348,0.567-0.428,0.741-0.428c0.171,0,0.412-0.275,0.376-0.602  c-0.033-0.326-0.241-0.24-0.241-0.24l-0.016-1.426l2.336-0.035l0.138-0.068l4.002-0.033l0.14,0.805h0.739  c0,0,0.016,0.844,0.84,0.861v1.818c0,0,0.396,0.379,0,0.775v0.926h1.703v0.705h1.2l0.122-0.24l1.013-0.016l0.156-0.361h-0.431  v-0.225h1.032v0.326c0,0,0.187,0.449,0,0.705v1.633L74.672,69v-2.557l8.384-0.156v2.406l0.757,0.033c0,0,0.259,0.051,0.259,0.137  s0,1.496,0,1.496l0.702,0.086v-0.209l0.843-0.033l0.067-0.154h1.084v0.586h0.619l0.085,1.889l0.996,0.086l1.117-0.293l1.493,0.018  v-0.738h0.724l-0.086-1.977c0,0,0.635-0.6-0.843-1.168l-0.018-2.387h2.75V60.74h-7.25v-2.854h-1.273V55.48h-2.128v-2.043h-0.122  l-0.016-0.551h0.153v-0.67h-0.138l-0.016-2.095l-2.354-0.363V47.87l-2.439-0.739v-2.165h1.047c0,0,0.275-0.223,0.327-0.188  l-0.052-1.46l0.757-1.136h1.081v-2.644h-1.872v-5.172l1.701-0.137v-5.224h0.257l0.069,0.085l5.309-0.085l0.721-1.047l0.758,0.67  l0.016,0.344l5.171,0.052l0.052-0.447l0.482,0.412h3.178l-1.187-1.219c0,0-0.395-0.052-0.446-0.292c0,0-0.257-0.549-0.824-0.653  c-0.568-0.104-0.498-0.224-0.55-0.464s-0.052-1.237-0.052-1.237l-2.148-1.976h-0.429l4.76-4.158c0,0-0.431-0.875-0.739-0.945  c-0.311-0.067-0.756-0.067-0.774-0.223c-0.016-0.154,0.036-0.652,0.036-0.652l0.738-0.636c0,0,0.224-0.396-0.378-0.962v-2.389  h-2.698V9.454l-0.978,1.099c0,0-0.362,0.447-0.448,0.584s-2.01,2.268-2.01,2.268l-0.412,0.566c0,0-0.55-0.292-0.704,0.498  l-0.087,0.276c0,0-0.292-0.052-0.308,0.017c-0.019,0.069-1.736,1.89-1.89,2.148c-0.156,0.258-1.565,1.648-1.822,1.7  c-0.26,0.052-0.517-0.085-0.517-0.085s-0.24-0.189-0.292,0.05c-0.05,0.241-0.068,0.482-0.239,0.379  c-0.173-0.103-0.311-0.464-0.345-0.121c-0.033,0.344,0,0.568-0.188,0.533c-0.189-0.034-0.412-0.052-0.412-0.052  s-0.205-0.154-0.258-0.05c-0.052,0.102-0.085,0.308,0.104,0.532c0.187,0.223,0.91,0.927,0.91,0.927s0.445-0.326,0.428,0.189  l-0.034,0.36l-0.895-0.017l-0.101,0.824l-0.018,0.241l-0.722,0.602l0.052,2.25l-9.433,5.808v-1.804l-0.293,0.206l-0.978-1.271  c0,0-0.311-0.206-0.671-0.172c0,0-1.186,1.444-1.22,1.959h1.151c0,0,0.189,0.24,0,0.429c-0.188,0.189-0.445,0.516-0.652,0.533  c-0.208,0.017-0.395-0.068-0.395-0.068l0.428-0.447c0,0-0.394,0.155-0.583,0.327c-0.189,0.172-0.739,0.67-0.757,0.824  c-0.019,0.155-1.512,1.22-1.512,1.22l-0.55-0.55c0,0-0.378,0.189-0.36,0.258c0.017,0.069,0.395,0.189,0.412,0.275  c0.017,0.087-0.961,0.997-1.047,1.014c-0.088,0.018-0.14,0.309-0.14,0.309l-0.736,0.018l-0.036,0.859l-0.446-0.172l-0.772,0.516  l0.602,0.121l-0.345,0.343l-1.202-0.069l-0.139,0.602l0.053,0.188l-0.807,0.619l-0.14-0.034l-0.138-0.894l1.565-1.185l-0.809-1.031  l-6.289,4.776l0.156,0.498l-1.46,0.962c0,0-0.036,0.412-0.036,0.498s0.568,0.772,0.568,0.979c0,0.205-0.584,0.189-0.688,0.12  c-0.104-0.068-0.704-0.584-0.704-0.584l-0.465,0.343l0.189,0.344l0.43-0.155l0.016,0.671l-0.204,0.119l-0.654-0.705l-1.185,0.791  v0.138l0.24,0.481l-0.188,0.171l-0.396-0.445l-0.67,0.445l0.387,0.586l-0.197,0.171l-0.43-0.533l-0.654,0.447  c0,0-0.171-0.137-0.343-0.069c-0.171,0.069-0.309,0.208-0.154,0.412c0.154,0.207,0.275,0.55,0.275,0.55s-0.704,0.43-0.859,0.43  c-0.154,0-0.549,0.208-0.721,0.156c-0.138,0.085,0.223,0.395,0.258,0.479c0.034,0.086-0.258,0.309-0.413,0.309  c-0.155,0-0.756-0.272-0.858-0.187c-0.104,0.085-1.22,0.892-1.22,0.892s0.034,0.275-0.104,0.293c-0.138,0.018-0.55-0.086-0.55-0.018  c0,0.069,0.154,0.448,0,0.567c-0.155,0.119-1.203,0.653-1.237,0.583c-0.034-0.067-0.292-0.688-0.292-0.688h-0.189l-1.289,0.517  c0,0-0.206,0.344-0.085,0.482c0.12,0.137,0.154,0.378,0,0.445s-1.117,0.688-1.684,0.653s-1.908-0.586-2.337-0.636  c-0.429-0.052-0.894-0.155-1.22-0.155c-0.327,0-0.566-0.119-0.722-0.188c-0.154-0.07-0.326-0.602-0.636-0.62  c-0.31-0.016-0.447-0.085-0.618-0.085c-0.172,0-0.326,0.207-0.43,0.207c-0.103,0-0.274,0.086-0.274,0.086v6.098l-3.162,1.873  c0,0-0.635-0.447-0.841-0.447s-1.787,0.035-1.787,0.035l-0.121,0.086H21.98v0.756l-1.306,0.033l-0.121,0.139l-0.481-0.189h-3.453  l-0.636-0.531l-0.808-0.02l-0.188,0.654c0,0,0.085,0.256,0.154,0.344c0.069,0.086,0.791,0.789,0.791,0.789l2.336-0.086l0.928-0.668  l0.997,0.051c0,0,0.533,0.445-0.12,0.67c-0.652,0.223-1.409,0.24-1.563,0.396c-0.155,0.152-0.138,0.445,0.017,0.668  c0.156,0.223,1.049,1.582,1.049,1.582s0.068,0.119-0.172,0.293c-0.24,0.17-0.945,1.08-1.083,1.355  c-0.138,0.273-0.601,0.824-0.79,0.842c-0.189,0.016-0.378,0.053-0.773-0.498c-0.395-0.549-0.549-0.172-0.549,0s0,1.768,0,1.992  c0,0.223,0.447,0.859,0.481,0.945s-0.017,0.445-0.154,0.584c-0.137,0.137-0.378,1.031-1.083,0.652  c-0.705-0.379-1.271-0.756-1.701-0.756s-0.91-0.016-0.962,0.121s-0.258,1.117-0.258,1.479c0,0.359,0.499,0.961,0.515,1.236  c0.017,0.273-0.035,0.805-0.085,0.875c-0.052,0.07-0.275,0.551-0.344,0.531c-0.068-0.016-0.739-0.564-0.826-0.564  c-0.085,0-0.189,0.104-0.274,0.24c-0.086,0.139-0.36,0.514-0.429,0.514s-0.808-0.1-0.808-0.1l0.017,1.852l-0.464,0.02v0.43  c0,0,0.361,0.172,0.412,0.309c0.052,0.137-0.137,0.738-0.137,0.738s-0.429,0.842-0.67,0.998c-0.24,0.154-0.412,0.617-0.412,0.617  l-0.017,0.516l-1.804,2.318l-0.068,0.672L6.19,80.168l0.086-1.752l-1.168,1.135l0.206,0.275l0.052,0.375l0.069,0.086  c0,0-1.099,0.932-1.374,1.154C3.785,81.664,3.477,82.043,3.477,82.188z"/></svg>